<?xml version="1.0" standalone="no"?>
<!DOCTYPE svg PUBLIC "-//W3C//DTD SVG 20010904//EN"
 "http://www.w3.org/TR/2001/REC-SVG-20010904/DTD/svg10.dtd">
<svg version="1.0" xmlns="http://www.w3.org/2000/svg"
 width="820.000000pt" height="820.000000pt" viewBox="0 0 820.000000 820.000000"
 preserveAspectRatio="xMidYMid meet">
<metadata>
Created by potrace 1.14, written by Peter Selinger 2001-2017
</metadata>
<g transform="translate(0.000000,820.000000) scale(0.100000,-0.100000)"
fill="#000000" stroke="none">
<path d="M4000 7971 c-72 -23 -123 -50 -190 -100 -30 -23 -58 -41 -62 -41 -5
0 -8 -7 -8 -15 0 -8 -4 -15 -8 -15 -5 0 -59 -49 -121 -110 -122 -118 -172
-164 -216 -195 -15 -11 -32 -25 -39 -30 -6 -6 -28 -20 -49 -33 l-37 -21 -68
31 c-37 17 -75 38 -84 46 -10 8 -18 12 -18 9 0 -4 -60 30 -132 74 -346 213
-527 315 -529 301 -16 -111 -12 -530 6 -667 2 -16 7 -56 10 -87 3 -31 8 -66
10 -79 2 -12 7 -45 10 -73 2 -28 7 -62 10 -76 2 -14 7 -43 10 -65 4 -22 8 -49
10 -60 11 -63 18 -104 20 -135 2 -19 4 -35 5 -35 3 0 12 -58 14 -87 0 -16 3
-28 7 -28 3 0 6 -10 7 -22 0 -13 3 -34 5 -48 3 -14 7 -41 11 -60 3 -19 10 -57
17 -85 6 -27 11 -60 12 -72 1 -13 6 -23 11 -23 4 0 6 -7 3 -15 -4 -8 -2 -17 3
-20 6 -4 10 -15 10 -25 0 -25 36 -107 66 -152 51 -73 121 -98 323 -116 127
-10 901 -9 901 2 0 7 3 8 8 1 8 -12 102 -14 102 -2 0 5 6 5 13 0 19 -12 207
-11 207 2 0 6 3 6 8 -1 5 -8 110 -11 367 -9 373 3 413 5 530 31 39 9 82 18 97
21 48 9 119 96 134 164 2 11 6 28 9 40 2 11 7 29 10 39 3 10 8 29 11 42 9 39
12 53 14 53 1 0 3 11 4 25 3 27 13 91 21 130 10 47 43 238 51 290 3 19 8 49
11 65 3 17 7 41 8 55 2 14 4 25 5 25 1 0 3 11 4 25 10 84 18 146 22 151 2 3 6
35 10 70 3 35 7 78 9 94 11 102 18 197 19 242 1 29 3 53 6 53 3 0 5 90 5 200
0 110 -4 200 -8 200 -5 0 -5 5 -1 11 3 6 -7 4 -22 -4 -16 -8 -72 -35 -124 -61
-52 -25 -117 -60 -145 -76 -27 -16 -81 -47 -120 -69 -88 -51 -126 -74 -140
-84 -27 -20 -158 -97 -166 -97 -5 0 -9 -4 -9 -8 0 -5 -15 -16 -32 -25 -18 -9
-48 -26 -67 -36 l-34 -20 -114 112 c-62 62 -118 114 -123 115 -6 2 -10 8 -10
12 0 5 -23 31 -51 57 -29 26 -69 64 -90 84 -21 19 -61 55 -90 80 -29 24 -58
50 -65 57 -7 6 -17 12 -22 12 -6 0 -12 3 -14 8 -3 8 -53 43 -83 59 -15 8 -34
6 -75 -6z"/>
<path d="M4387 5374 c-2 -3 -314 -5 -693 -6 -379 -1 -708 -5 -732 -10 -23 -4
-57 -9 -75 -11 -31 -4 -41 -7 -119 -40 -42 -18 -101 -70 -91 -81 4 -4 2 -11
-5 -15 -7 -4 -15 -25 -18 -47 -2 -21 -6 -46 -9 -54 -18 -64 -35 -446 -20 -470
3 -5 1 -11 -5 -15 -7 -4 -7 -12 0 -26 6 -10 7 -19 2 -19 -5 0 -6 -22 -2 -50 4
-29 2 -54 -4 -60 -6 -6 -6 -10 0 -10 9 0 10 -110 0 -135 -3 -8 -2 -15 2 -15 4
0 7 -280 7 -622 0 -614 0 -623 -20 -629 -27 -7 -933 -4 -941 4 -3 3 -17 2 -29
-3 -15 -6 -25 -5 -27 1 -2 7 -12 7 -31 0 -15 -6 -27 -7 -27 -2 0 11 -33 10
-48 -2 -7 -5 -12 -5 -12 0 0 11 -150 10 -168 -1 -6 -4 -12 -3 -12 1 0 5 -9 9
-20 10 -11 1 -20 -3 -20 -8 0 -6 -7 -6 -19 0 -10 6 -20 8 -23 6 -3 -3 -81 -7
-174 -10 -93 -3 -196 -7 -229 -10 -33 -3 -79 -7 -102 -8 -24 -1 -43 -4 -43 -7
0 -4 -6 -7 -14 -7 -22 0 -76 -25 -76 -35 0 -5 -4 -7 -9 -4 -18 11 -73 -81 -87
-147 -16 -73 -19 -234 -19 -1192 0 -1115 3 -1204 44 -1289 12 -22 35 -51 53
-63 33 -22 172 -56 278 -68 95 -11 6399 -3 6445 8 103 24 150 43 185 76 42 39
43 40 61 211 11 103 15 3185 4 3325 -7 92 -34 252 -46 277 -5 9 -22 19 -39 23
-16 4 -30 10 -30 14 0 4 -6 8 -12 9 -7 0 -24 3 -38 7 -14 3 -34 8 -45 10 -11
3 -31 7 -45 11 -42 10 -72 13 -155 20 -130 10 -1559 11 -1572 1 -7 -5 -13 -6
-13 -1 0 11 -90 12 -106 1 -22 -13 -26 28 -30 278 -4 241 -11 490 -15 490 0 0
-2 14 -4 30 -16 205 -25 288 -31 294 -2 2 -16 5 -31 7 -16 1 -28 3 -28 4 0 1
-22 3 -50 5 -27 3 -68 7 -90 10 -22 3 -78 8 -125 11 -159 8 -199 12 -209 18
-5 4 -12 2 -16 -4 -4 -6 -11 -7 -17 -4 -5 4 -94 8 -197 10 -102 3 -191 6 -198
9 -6 2 -13 2 -16 -1z m378 -1257 c0 -367 3 -667 7 -667 4 0 4 -9 0 -19 -4 -11
-5 -133 -2 -271 3 -152 1 -255 -5 -261 -6 -6 -6 -9 0 -9 6 0 8 -112 5 -296 -3
-163 -1 -298 3 -301 5 -3 4 -10 -2 -16 -7 -7 -7 -14 0 -24 7 -7 8 -13 3 -13
-5 0 -9 -323 -9 -733 l-1 -732 -733 -1 c-404 0 -743 1 -755 3 l-21 4 1 1962
c1 1079 2 1980 3 2002 l1 40 752 0 752 0 1 -668z m1109 -480 c12 12 330 11
338 -1 5 -7 8 -8 8 -1 0 9 83 11 145 4 6 -1 26 -1 45 0 19 0 140 0 267 -2 225
-2 233 -3 234 -22 3 -58 4 -2803 1 -2822 l-4 -22 -743 2 c-409 1 -747 5 -751
9 -4 4 -6 51 -6 105 1 54 1 253 1 443 -3 1742 -1 2063 14 2088 5 7 3 12 -3 12
-8 0 -9 7 -5 18 4 9 8 45 9 79 0 34 5 65 9 69 4 4 22 9 40 11 72 7 112 12 112
14 0 2 65 7 173 12 39 2 75 7 79 10 3 4 11 2 18 -3 7 -5 15 -7 19 -3z m-3719
-1132 c149 -3 315 -6 370 -8 l100 -2 1 -857 c1 -842 0 -857 -19 -862 -25 -6
-1504 -3 -1510 4 -2 3 -7 218 -10 477 -3 260 -8 477 -12 483 -3 5 -2 10 3 10
6 0 7 14 2 34 -4 19 -6 36 -4 38 2 2 6 85 9 183 3 99 8 200 10 225 2 25 7 83
10 130 4 47 12 90 19 97 6 6 34 14 61 18 28 3 64 8 80 11 57 9 161 15 299 19
76 3 140 6 142 7 1 2 42 2 91 1 48 -1 210 -4 358 -8z"/>
</g>
</svg>
