<?xml version="1.0" standalone="no"?>
<!DOCTYPE svg PUBLIC "-//W3C//DTD SVG 20010904//EN"
 "http://www.w3.org/TR/2001/REC-SVG-20010904/DTD/svg10.dtd">
<svg version="1.0" xmlns="http://www.w3.org/2000/svg"
 width="733.000000pt" height="733.000000pt" viewBox="0 0 733.000000 733.000000"
 preserveAspectRatio="xMidYMid meet">
<metadata>
Created by potrace 1.14, written by Peter Selinger 2001-2017
</metadata>
<g transform="translate(0.000000,733.000000) scale(0.100000,-0.100000)"
fill="#000000" stroke="none">
<path d="M3560 7130 c0 -5 -5 -10 -11 -10 -31 0 -170 -115 -342 -282 -38 -38
-70 -68 -72 -68 -2 0 -20 -16 -41 -35 -66 -63 -156 -116 -184 -110 -47 11
-223 102 -261 135 -38 32 -49 40 -58 40 -5 0 -11 3 -13 8 -13 30 -231 146
-295 157 -40 6 -42 5 -70 -37 -15 -24 -29 -48 -30 -55 -2 -7 -6 -29 -11 -50
-12 -59 -2 -227 23 -380 2 -13 6 -27 10 -33 3 -5 2 -10 -4 -10 -7 0 -7 -8 -2
-22 5 -13 11 -47 15 -77 4 -30 9 -64 11 -75 3 -12 7 -46 9 -76 2 -30 7 -62 9
-70 3 -8 8 -33 11 -55 3 -22 7 -53 10 -70 3 -16 8 -43 10 -60 3 -16 7 -41 10
-55 3 -14 7 -41 10 -60 8 -52 16 -91 23 -125 11 -48 12 -58 15 -87 1 -16 6
-28 10 -28 3 0 7 -8 6 -17 0 -21 7 -48 20 -84 6 -15 9 -29 7 -31 -7 -6 70
-112 90 -122 11 -6 22 -14 25 -17 11 -12 66 -24 151 -32 25 -2 50 -6 55 -9 15
-9 1708 -6 1725 3 10 5 20 4 27 -3 7 -7 12 -8 12 -2 0 5 15 10 33 10 56 2 121
12 151 23 26 11 126 101 110 101 -3 0 -2 6 3 13 12 14 48 119 45 129 -1 4 2
18 7 31 5 13 12 41 15 62 4 21 8 47 11 59 3 12 7 32 9 46 5 34 24 137 32 180
4 19 7 47 8 63 0 15 5 27 9 27 5 0 6 3 4 8 -3 4 1 41 8 82 7 41 11 78 9 82 -2
4 1 10 7 13 5 4 8 12 6 19 -4 10 1 56 19 156 3 19 7 51 10 70 2 19 6 58 10 85
3 28 7 62 7 78 1 15 4 27 7 27 3 0 5 57 4 127 0 129 -2 134 -47 221 -16 30
-38 35 -89 22 -66 -18 -253 -121 -283 -156 -5 -6 -14 -13 -20 -15 -5 -2 -48
-29 -95 -60 -47 -31 -115 -68 -152 -84 -61 -25 -69 -26 -97 -14 -17 8 -31 17
-31 21 0 5 -5 8 -11 8 -6 0 -16 6 -23 13 -7 6 -28 23 -46 37 -45 33 -83 67
-197 178 -53 50 -97 92 -98 92 -2 0 -18 14 -36 31 -37 35 -167 123 -186 127
-7 1 -13 -2 -13 -8z"/>
<path d="M2798 4824 c-3 -3 -34 -7 -69 -9 -35 -2 -64 -4 -64 -5 0 -1 -18 -4
-40 -6 -87 -7 -144 -26 -182 -60 -21 -19 -33 -34 -28 -34 6 0 4 -4 -4 -9 -8
-5 -16 -24 -18 -43 -2 -18 -7 -34 -11 -35 -4 -2 -6 -20 -6 -40 1 -21 -1 -42
-4 -47 -3 -5 -6 -38 -7 -73 -1 -34 -4 -66 -8 -69 -3 -3 -2 -17 3 -30 5 -13 6
-26 0 -29 -5 -3 -5 -18 0 -35 5 -16 5 -32 2 -34 -9 -5 -7 -480 2 -494 3 -6 3
-13 -1 -15 -10 -6 -8 -160 1 -176 4 -6 3 -11 -3 -11 -6 0 -8 -9 -3 -22 9 -27
8 -70 -2 -87 -4 -6 -4 -17 1 -23 10 -17 10 -38 1 -65 -4 -13 -4 -23 1 -23 8 0
5 -62 -4 -87 -2 -6 -1 -14 2 -17 10 -10 10 -56 0 -56 -4 0 -5 -5 -2 -11 8 -11
8 -92 1 -126 -3 -13 0 -23 6 -23 7 0 7 -4 0 -13 -7 -8 -7 -18 -2 -27 5 -8 6
-18 4 -22 -3 -5 -6 -44 -7 -88 -1 -71 -2 -78 -18 -70 -9 5 -19 6 -23 3 -9 -10
-46 -11 -46 -2 0 4 -12 4 -27 1 -16 -4 -102 -6 -193 -5 -197 4 -209 4 -235 -1
-11 -2 -24 -1 -30 3 -18 10 -35 10 -35 -1 0 -6 -5 -7 -12 -2 -15 11 -78 11
-96 0 -6 -4 -12 -4 -12 1 0 4 -99 8 -219 8 -128 0 -217 -4 -214 -9 4 -5 0 -5
-8 0 -18 11 -88 13 -116 3 -16 -6 -23 -5 -23 4 0 8 -4 7 -10 -3 -7 -11 -10
-11 -10 -2 0 7 -5 10 -10 7 -6 -4 -66 -8 -133 -11 -160 -5 -185 -8 -245 -28
-115 -39 -143 -94 -158 -311 -12 -169 -7 -1828 6 -1908 12 -79 36 -145 67
-184 19 -22 112 -45 238 -58 100 -11 5503 -6 5586 5 145 19 164 22 189 34 57
26 96 145 104 316 2 47 5 90 6 95 1 6 1 12 0 15 -6 16 -4 70 3 70 5 0 5 5 1
11 -9 15 -9 532 0 547 4 7 4 12 -1 12 -10 0 -10 941 1 958 4 7 3 12 -1 12 -9
0 -9 91 1 115 3 8 2 15 -2 15 -4 0 -6 17 -5 38 4 54 4 52 4 117 -1 33 -1 68 0
78 0 12 1 479 0 570 0 143 -27 320 -56 376 -30 59 -104 89 -260 107 -80 10
-1140 10 -1152 1 -8 -6 -13 -6 -13 0 0 8 -87 10 -115 3 -5 -1 -12 -1 -15 0
-14 6 -87 5 -101 -1 -9 -5 -19 -5 -23 -1 -11 10 -79 9 -93 -1 -9 -6 -13 -5
-13 2 0 7 -4 10 -8 7 -4 -2 -14 -1 -22 4 -16 10 -23 40 -9 40 6 0 7 6 3 12
-11 18 -12 48 -2 48 5 0 6 6 2 12 -11 18 -12 48 -2 48 5 0 6 6 2 12 -11 18
-12 48 -2 48 5 0 6 6 2 12 -11 18 -12 48 -2 48 5 0 6 6 2 12 -5 7 -8 22 -8 33
0 11 3 26 8 33 4 6 3 12 -1 12 -5 0 -9 9 -9 20 0 11 4 20 9 20 4 0 5 6 0 12
-4 7 -8 53 -9 103 -1 49 -5 110 -8 135 -4 25 -9 63 -11 85 -8 70 -12 89 -28
126 -15 38 -73 89 -99 89 -8 0 -18 3 -22 7 -7 7 -27 10 -84 14 -18 1 -34 5
-36 8 -2 3 -104 6 -225 6 -141 0 -221 4 -221 10 0 7 -3 7 -8 0 -10 -14 -944
-14 -954 0 -5 7 -8 7 -8 0 0 -10 -100 -10 -127 0 -7 2 -15 1 -17 -4 -3 -4 -26
-5 -50 -1 -25 4 -51 3 -58 -1 -7 -4 -17 -4 -24 1 -6 6 -13 7 -16 4z m807 -526
c4 0 12 6 16 14 7 11 9 11 9 -1 0 -10 3 -11 14 -2 11 9 16 9 21 0 6 -8 10 -7
16 2 5 8 9 10 9 4 0 -6 97 -10 270 -10 263 0 270 -1 271 -20 0 -11 2 -222 5
-470 2 -247 4 -454 4 -460 1 -5 1 -23 1 -40 -1 -38 -1 -60 -1 -82 0 -41 -1
-70 -4 -95 -2 -16 1 -28 6 -28 5 0 4 -9 -2 -20 -8 -14 -8 -20 0 -20 7 0 8 -6
1 -19 -6 -10 -7 -21 -4 -25 10 -10 11 -46 1 -46 -5 0 -4 -9 2 -19 7 -14 6 -21
-3 -24 -9 -4 -9 -7 0 -14 7 -5 9 -14 4 -22 -5 -7 -5 -28 -1 -47 5 -20 4 -34
-1 -34 -6 0 -6 -7 0 -18 5 -10 6 -24 1 -32 -4 -7 -4 -24 1 -37 5 -12 5 -23 1
-23 -8 0 -7 -68 2 -77 3 -3 2 -13 -3 -22 -5 -9 -5 -25 -1 -36 4 -11 4 -34 0
-51 -4 -18 -4 -38 1 -45 4 -7 4 -20 0 -28 -5 -9 -5 -25 -1 -36 4 -11 4 -34 -1
-52 -4 -18 -3 -33 2 -33 5 0 4 -11 -1 -25 -6 -16 -6 -26 1 -31 7 -4 6 -10 -1
-19 -6 -7 -7 -16 -2 -19 10 -6 9 -36 -1 -53 -4 -6 -3 -15 3 -18 8 -5 7 -12 -2
-23 -10 -12 -10 -16 -1 -19 9 -3 10 -10 3 -24 -8 -13 -7 -19 0 -19 7 0 8 -6 1
-19 -6 -10 -8 -21 -5 -24 9 -9 10 -78 1 -84 -4 -3 -3 -11 4 -19 6 -8 7 -14 2
-14 -11 0 -9 -42 2 -59 3 -6 2 -11 -2 -11 -5 0 -7 -21 -6 -47 5 -70 5 -97 3
-103 -1 -3 -3 -205 -5 -450 l-2 -445 -184 -5 c-164 -4 -370 -5 -951 -1 l-178
1 3 40 c2 22 -1 42 -7 44 -8 3 -7 7 1 13 7 5 9 14 3 23 -5 8 -5 21 1 32 6 10
6 24 2 31 -10 16 -10 37 -1 65 4 13 3 22 -3 22 -6 0 -6 7 1 20 6 11 7 20 3 20
-10 0 -9 83 1 99 4 6 4 11 -1 11 -6 0 -9 2379 -3 2720 0 8 0 36 -1 62 0 26 2
52 5 57 4 5 2 13 -4 16 -8 5 -8 11 0 20 7 9 8 15 1 19 -7 4 -7 15 -1 31 5 14
5 27 0 30 -5 3 -5 18 0 35 5 19 5 30 -1 30 -6 0 -7 6 -2 13 4 6 6 20 5 30 -3
13 4 17 25 18 15 0 162 2 326 4 164 1 301 5 304 9 4 3 10 1 13 -5 4 -6 11 -11
15 -11z m2360 -1002 c83 -2 152 -4 155 -5 7 -2 5 -2479 -2 -2486 -11 -11
-1285 -9 -1314 2 -14 5 -17 277 -15 1543 1 677 2 743 16 752 7 5 7 8 -1 8 -12
0 -12 49 0 68 4 7 3 12 -3 12 -6 0 -8 7 -4 16 3 9 7 25 8 37 1 12 3 26 4 30 0
5 9 7 19 6 9 -1 19 0 22 1 10 4 68 9 174 15 61 3 111 7 113 9 4 3 543 -2 828
-8z m-4098 -989 c6 -4 14 -3 18 3 4 6 11 7 17 4 6 -4 77 -9 157 -11 220 -6
249 -7 257 -15 4 -4 13 -3 20 3 9 7 15 6 20 -3 13 -20 12 -1477 -1 -1482 -19
-7 -712 -11 -1181 -7 l-140 1 -4 322 c-7 697 -1 1023 19 1159 1 3 13 6 29 7
15 0 47 3 72 6 25 3 90 8 145 11 55 4 100 7 101 8 6 6 461 0 471 -6z"/>
</g>
</svg>
