<?xml version="1.0" standalone="no"?>
<!DOCTYPE svg PUBLIC "-//W3C//DTD SVG 20010904//EN"
 "http://www.w3.org/TR/2001/REC-SVG-20010904/DTD/svg10.dtd">
<svg version="1.0" xmlns="http://www.w3.org/2000/svg"
 width="836.000000pt" height="836.000000pt" viewBox="0 0 836.000000 836.000000"
 preserveAspectRatio="xMidYMid meet">
<metadata>
Created by potrace 1.14, written by Peter Selinger 2001-2017
</metadata>
<g transform="translate(0.000000,836.000000) scale(0.100000,-0.100000)"
fill="#000000" stroke="none">
<path d="M4052 8110 c-109 -39 -206 -116 -442 -350 -80 -80 -169 -164 -197
-188 l-51 -42 -68 45 c-38 24 -76 49 -84 55 -200 137 -662 402 -676 387 -19
-19 -19 -498 0 -657 3 -30 9 -77 11 -105 6 -52 14 -112 21 -155 2 -14 6 -45 8
-70 3 -25 6 -45 6 -45 3 0 16 -77 25 -145 2 -14 6 -38 9 -55 4 -16 9 -45 11
-64 3 -19 8 -48 12 -65 3 -17 7 -43 7 -58 1 -16 5 -28 9 -28 4 0 7 -6 5 -12
-1 -7 2 -35 6 -63 5 -27 10 -59 12 -70 2 -17 48 -191 57 -220 12 -36 46 -95
72 -124 38 -42 70 -58 131 -67 27 -3 58 -8 69 -10 24 -5 99 -12 210 -20 44 -3
190 -5 325 -4 221 2 778 2 1255 1 175 -1 208 1 325 14 116 13 233 40 266 61
26 18 86 109 77 118 -4 3 -1 6 6 6 7 0 10 4 6 9 -3 5 -1 12 5 16 6 4 8 10 6
14 -3 4 4 38 15 76 11 39 22 84 24 100 2 17 7 48 11 70 3 22 8 49 9 60 2 11 4
20 5 20 1 0 4 16 6 35 7 53 11 75 14 75 1 0 3 11 5 25 1 14 5 36 8 50 9 45 20
115 23 140 1 14 3 25 4 25 1 0 3 14 5 30 1 17 3 30 5 30 1 0 3 16 5 35 3 19 7
49 9 65 3 17 8 50 11 75 3 25 7 59 10 75 10 79 24 216 31 315 8 108 9 478 2
485 -6 7 -178 -75 -338 -161 -98 -52 -431 -253 -492 -296 l-27 -18 -138 135
c-154 152 -277 270 -314 300 -161 133 -209 165 -246 164 -15 0 -52 -9 -81 -19z"/>
<path d="M3247 5473 c-1 0 -36 -4 -77 -7 -185 -16 -210 -25 -280 -96 -51 -52
-54 -57 -87 -185 -3 -11 -7 -447 -8 -970 -1 -522 -3 -963 -4 -980 l-1 -30
-472 3 c-775 4 -855 4 -1033 -2 -203 -7 -299 -14 -405 -30 -19 -3 -55 -8 -80
-11 -25 -3 -61 -8 -80 -11 -19 -3 -48 -7 -64 -9 -16 -1 -32 -9 -37 -16 -8 -13
-9 -2443 -1 -2605 l4 -72 36 -6 c119 -20 324 -49 437 -61 107 -11 656 -13
3130 -11 2693 2 3008 4 3075 18 165 35 191 49 228 124 46 90 45 83 44 1719 0
1734 -1 1745 -14 1835 -20 134 -104 221 -248 257 -8 2 -81 6 -162 7 -80 2
-151 7 -157 10 -5 4 -12 2 -16 -4 -4 -6 -12 -7 -18 -3 -13 8 -737 11 -737 3 0
-4 -641 -4 -647 0 -8 5 -71 2 -81 -3 -17 -12 -19 15 -22 298 -4 612 -7 755
-14 762 -3 4 -12 8 -19 9 -7 1 -28 5 -47 8 -41 8 -93 15 -135 20 -16 2 -30 5
-30 6 0 1 -20 3 -45 5 -25 2 -70 6 -100 9 -140 15 -329 18 -1053 20 -428 0
-779 0 -780 -1z m168 -553 c3 -6 -1 -7 -9 -4 -18 7 -21 14 -7 14 6 0 13 -4 16
-10z m435 -1160 c0 -5 -2 -10 -4 -10 -3 0 -8 5 -11 10 -3 6 -1 10 4 10 6 0 11
-4 11 -10z m2274 -518 c3 -5 -1 -9 -9 -9 -8 0 -12 4 -9 9 3 4 7 8 9 8 2 0 6
-4 9 -8z m446 4 c0 -2 -7 -7 -16 -10 -8 -3 -12 -2 -9 4 6 10 25 14 25 6z m120
0 c0 -3 -4 -8 -10 -11 -5 -3 -10 -1 -10 4 0 6 5 11 10 11 6 0 10 -2 10 -4z
m41 -163 c13 -16 12 -17 -3 -4 -10 7 -18 15 -18 17 0 8 8 3 21 -13z m-641 3
c0 -3 -4 -8 -10 -11 -5 -3 -10 -1 -10 4 0 6 5 11 10 11 6 0 10 -2 10 -4z m-5
-126 c3 -5 1 -10 -4 -10 -6 0 -11 5 -11 10 0 6 2 10 4 10 3 0 8 -4 11 -10z
m-1595 -44 c-7 -7 -13 -7 -20 0 -6 6 -3 10 10 10 13 0 16 -4 10 -10z m-643
-111 c0 -8 -4 -12 -9 -9 -5 3 -6 10 -3 15 9 13 12 11 12 -6z m-2166 -98 c-10
-9 -11 -8 -5 6 3 10 9 15 12 12 3 -3 0 -11 -7 -18z m-276 -27 c3 -5 1 -10 -4
-10 -6 0 -11 5 -11 10 0 6 2 10 4 10 3 0 8 -4 11 -10z m4569 -78 c3 -5 -1 -9
-9 -9 -8 0 -12 4 -9 9 3 4 7 8 9 8 2 0 6 -4 9 -8z m-1090 -288 c3 -8 2 -12 -4
-9 -6 3 -10 10 -10 16 0 14 7 11 14 -7z m-563 -47 c-10 -9 -11 -8 -5 6 3 10 9
15 12 12 3 -3 0 -11 -7 -18z m1769 -291 c0 -2 -8 -10 -17 -17 -16 -13 -17 -12
-4 4 13 16 21 21 21 13z m-4114 -18 c3 -4 -1 -5 -10 -4 -8 1 -18 5 -22 8 -3 4
1 5 10 4 8 -1 18 -5 22 -8z m119 2 c3 -6 -1 -7 -9 -4 -18 7 -21 14 -7 14 6 0
13 -4 16 -10z m120 0 c3 -6 -1 -7 -9 -4 -18 7 -21 14 -7 14 6 0 13 -4 16 -10z
m1800 0 c-3 -5 -12 -10 -18 -10 -7 0 -6 4 3 10 19 12 23 12 15 0z m-1452 -155
c-3 -9 -8 -14 -10 -11 -3 3 -2 9 2 15 9 16 15 13 8 -4z m-1118 -5 c3 -5 1 -10
-4 -10 -6 0 -11 5 -11 10 0 6 2 10 4 10 3 0 8 -4 11 -10z m805 0 c0 -5 -2 -10
-4 -10 -3 0 -8 5 -11 10 -3 6 -1 10 4 10 6 0 11 -4 11 -10z m4480 -2 c0 -4 -4
-8 -9 -8 -6 0 -12 4 -15 8 -3 5 1 9 9 9 8 0 15 -4 15 -9z m-4480 -118 c0 -5
-5 -10 -11 -10 -5 0 -7 5 -4 10 3 6 8 10 11 10 2 0 4 -4 4 -10z m1760 -34 c0
-3 -4 -8 -10 -11 -5 -3 -10 -1 -10 4 0 6 5 11 10 11 6 0 10 -2 10 -4z m120 -6
c0 -5 -2 -10 -4 -10 -3 0 -8 5 -11 10 -3 6 -1 10 4 10 6 0 11 -4 11 -10z
m2435 0 c3 -5 1 -10 -4 -10 -6 0 -11 5 -11 10 0 6 2 10 4 10 3 0 8 -4 11 -10z
m125 0 c0 -5 -5 -10 -11 -10 -5 0 -7 5 -4 10 3 6 8 10 11 10 2 0 4 -4 4 -10z
m-600 -474 c0 -3 -4 -8 -10 -11 -5 -3 -10 -1 -10 4 0 6 5 11 10 11 6 0 10 -2
10 -4z"/>
</g>
</svg>
